<mxfile host="app.diagrams.net" modified="2023-04-10T18:51:05.249Z" agent="Mozilla/5.0 (Macintosh; Intel Mac OS X 10_15_7) AppleWebKit/605.1.15 (KHTML, like Gecko) Version/16.1 Safari/605.1.15" etag="Kg_l7W7NzvQuCazd_EYX" version="21.1.5" type="device">
  <diagram name="Page-1" id="pAwqQ6aMGpKzlMPtDzT1">
    <mxGraphModel dx="2338" dy="1157" grid="1" gridSize="10" guides="1" tooltips="1" connect="1" arrows="1" fold="1" page="1" pageScale="1" pageWidth="850" pageHeight="1100" math="0" shadow="0">
      <root>
        <mxCell id="0" />
        <mxCell id="1" parent="0" />
        <mxCell id="EO2H5Wq8OpSOIzvtQBnQ-3" style="edgeStyle=orthogonalEdgeStyle;rounded=0;orthogonalLoop=1;jettySize=auto;html=1;entryX=0.5;entryY=0;entryDx=0;entryDy=0;" edge="1" parent="1" source="EO2H5Wq8OpSOIzvtQBnQ-1" target="EO2H5Wq8OpSOIzvtQBnQ-2">
          <mxGeometry relative="1" as="geometry" />
        </mxCell>
        <mxCell id="EO2H5Wq8OpSOIzvtQBnQ-1" value="ContentView onAppear" style="rounded=1;whiteSpace=wrap;html=1;" vertex="1" parent="1">
          <mxGeometry x="340" y="70" width="120" height="60" as="geometry" />
        </mxCell>
        <mxCell id="EO2H5Wq8OpSOIzvtQBnQ-21" value="" style="edgeStyle=orthogonalEdgeStyle;rounded=0;orthogonalLoop=1;jettySize=auto;html=1;" edge="1" parent="1" source="EO2H5Wq8OpSOIzvtQBnQ-2" target="EO2H5Wq8OpSOIzvtQBnQ-20">
          <mxGeometry relative="1" as="geometry" />
        </mxCell>
        <mxCell id="EO2H5Wq8OpSOIzvtQBnQ-24" value="" style="edgeStyle=orthogonalEdgeStyle;rounded=0;orthogonalLoop=1;jettySize=auto;html=1;" edge="1" parent="1" source="EO2H5Wq8OpSOIzvtQBnQ-2" target="EO2H5Wq8OpSOIzvtQBnQ-23">
          <mxGeometry relative="1" as="geometry" />
        </mxCell>
        <mxCell id="EO2H5Wq8OpSOIzvtQBnQ-2" value="Initialized" style="rhombus;whiteSpace=wrap;html=1;" vertex="1" parent="1">
          <mxGeometry x="360" y="220" width="80" height="80" as="geometry" />
        </mxCell>
        <mxCell id="EO2H5Wq8OpSOIzvtQBnQ-6" value="" style="edgeStyle=orthogonalEdgeStyle;rounded=0;orthogonalLoop=1;jettySize=auto;html=1;" edge="1" parent="1" source="EO2H5Wq8OpSOIzvtQBnQ-4" target="EO2H5Wq8OpSOIzvtQBnQ-5">
          <mxGeometry relative="1" as="geometry" />
        </mxCell>
        <mxCell id="EO2H5Wq8OpSOIzvtQBnQ-4" value="vm.initializeUser" style="rounded=1;whiteSpace=wrap;html=1;" vertex="1" parent="1">
          <mxGeometry x="140" y="330" width="120" height="60" as="geometry" />
        </mxCell>
        <mxCell id="EO2H5Wq8OpSOIzvtQBnQ-8" value="" style="edgeStyle=orthogonalEdgeStyle;rounded=0;orthogonalLoop=1;jettySize=auto;html=1;" edge="1" parent="1" source="EO2H5Wq8OpSOIzvtQBnQ-5" target="EO2H5Wq8OpSOIzvtQBnQ-7">
          <mxGeometry relative="1" as="geometry" />
        </mxCell>
        <mxCell id="EO2H5Wq8OpSOIzvtQBnQ-5" value="vm.initilizeWorkspace" style="rounded=1;whiteSpace=wrap;html=1;" vertex="1" parent="1">
          <mxGeometry x="140" y="470" width="120" height="60" as="geometry" />
        </mxCell>
        <mxCell id="EO2H5Wq8OpSOIzvtQBnQ-17" value="" style="edgeStyle=orthogonalEdgeStyle;rounded=0;orthogonalLoop=1;jettySize=auto;html=1;" edge="1" parent="1" source="EO2H5Wq8OpSOIzvtQBnQ-7">
          <mxGeometry relative="1" as="geometry">
            <mxPoint x="320" y="640" as="targetPoint" />
          </mxGeometry>
        </mxCell>
        <mxCell id="EO2H5Wq8OpSOIzvtQBnQ-19" value="" style="edgeStyle=orthogonalEdgeStyle;rounded=0;orthogonalLoop=1;jettySize=auto;html=1;" edge="1" parent="1" source="EO2H5Wq8OpSOIzvtQBnQ-7">
          <mxGeometry relative="1" as="geometry">
            <mxPoint x="80" y="640" as="targetPoint" />
          </mxGeometry>
        </mxCell>
        <mxCell id="EO2H5Wq8OpSOIzvtQBnQ-7" value="vm.user exists?" style="rhombus;whiteSpace=wrap;html=1;rounded=1;" vertex="1" parent="1">
          <mxGeometry x="160" y="600" width="80" height="80" as="geometry" />
        </mxCell>
        <mxCell id="EO2H5Wq8OpSOIzvtQBnQ-29" value="" style="edgeStyle=orthogonalEdgeStyle;rounded=0;orthogonalLoop=1;jettySize=auto;html=1;" edge="1" parent="1" source="EO2H5Wq8OpSOIzvtQBnQ-16" target="EO2H5Wq8OpSOIzvtQBnQ-28">
          <mxGeometry relative="1" as="geometry" />
        </mxCell>
        <mxCell id="EO2H5Wq8OpSOIzvtQBnQ-16" value="YES" style="ellipse;whiteSpace=wrap;html=1;rounded=1;" vertex="1" parent="1">
          <mxGeometry x="320" y="600" width="80" height="80" as="geometry" />
        </mxCell>
        <mxCell id="EO2H5Wq8OpSOIzvtQBnQ-26" value="" style="edgeStyle=orthogonalEdgeStyle;rounded=0;orthogonalLoop=1;jettySize=auto;html=1;" edge="1" parent="1" source="EO2H5Wq8OpSOIzvtQBnQ-18" target="EO2H5Wq8OpSOIzvtQBnQ-25">
          <mxGeometry relative="1" as="geometry" />
        </mxCell>
        <mxCell id="EO2H5Wq8OpSOIzvtQBnQ-18" value="NO" style="ellipse;whiteSpace=wrap;html=1;rounded=1;" vertex="1" parent="1">
          <mxGeometry y="600" width="80" height="80" as="geometry" />
        </mxCell>
        <mxCell id="EO2H5Wq8OpSOIzvtQBnQ-22" style="edgeStyle=orthogonalEdgeStyle;rounded=0;orthogonalLoop=1;jettySize=auto;html=1;" edge="1" parent="1" source="EO2H5Wq8OpSOIzvtQBnQ-20" target="EO2H5Wq8OpSOIzvtQBnQ-4">
          <mxGeometry relative="1" as="geometry" />
        </mxCell>
        <mxCell id="EO2H5Wq8OpSOIzvtQBnQ-20" value="NO" style="ellipse;whiteSpace=wrap;html=1;" vertex="1" parent="1">
          <mxGeometry x="160" y="220" width="80" height="80" as="geometry" />
        </mxCell>
        <mxCell id="EO2H5Wq8OpSOIzvtQBnQ-34" style="edgeStyle=orthogonalEdgeStyle;rounded=0;orthogonalLoop=1;jettySize=auto;html=1;" edge="1" parent="1" source="EO2H5Wq8OpSOIzvtQBnQ-23" target="EO2H5Wq8OpSOIzvtQBnQ-25">
          <mxGeometry relative="1" as="geometry" />
        </mxCell>
        <mxCell id="EO2H5Wq8OpSOIzvtQBnQ-23" value="YES" style="ellipse;whiteSpace=wrap;html=1;" vertex="1" parent="1">
          <mxGeometry x="480" y="1160" width="80" height="80" as="geometry" />
        </mxCell>
        <mxCell id="EO2H5Wq8OpSOIzvtQBnQ-25" value="Sign in flow" style="whiteSpace=wrap;html=1;rounded=1;" vertex="1" parent="1">
          <mxGeometry x="-20" y="1170" width="120" height="60" as="geometry" />
        </mxCell>
        <mxCell id="EO2H5Wq8OpSOIzvtQBnQ-38" value="" style="edgeStyle=orthogonalEdgeStyle;rounded=0;orthogonalLoop=1;jettySize=auto;html=1;" edge="1" parent="1" source="EO2H5Wq8OpSOIzvtQBnQ-28" target="EO2H5Wq8OpSOIzvtQBnQ-37">
          <mxGeometry relative="1" as="geometry" />
        </mxCell>
        <mxCell id="EO2H5Wq8OpSOIzvtQBnQ-28" value="Check Auth Status&lt;br&gt;flow" style="whiteSpace=wrap;html=1;rounded=1;" vertex="1" parent="1">
          <mxGeometry x="300" y="770" width="120" height="60" as="geometry" />
        </mxCell>
        <mxCell id="EO2H5Wq8OpSOIzvtQBnQ-40" value="" style="edgeStyle=orthogonalEdgeStyle;rounded=0;orthogonalLoop=1;jettySize=auto;html=1;" edge="1" parent="1" source="EO2H5Wq8OpSOIzvtQBnQ-37" target="EO2H5Wq8OpSOIzvtQBnQ-39">
          <mxGeometry relative="1" as="geometry" />
        </mxCell>
        <mxCell id="EO2H5Wq8OpSOIzvtQBnQ-42" value="" style="edgeStyle=orthogonalEdgeStyle;rounded=0;orthogonalLoop=1;jettySize=auto;html=1;" edge="1" parent="1" source="EO2H5Wq8OpSOIzvtQBnQ-37" target="EO2H5Wq8OpSOIzvtQBnQ-41">
          <mxGeometry relative="1" as="geometry" />
        </mxCell>
        <mxCell id="EO2H5Wq8OpSOIzvtQBnQ-37" value="Authorized?" style="rhombus;whiteSpace=wrap;html=1;rounded=1;" vertex="1" parent="1">
          <mxGeometry x="320" y="900" width="80" height="80" as="geometry" />
        </mxCell>
        <mxCell id="EO2H5Wq8OpSOIzvtQBnQ-45" value="" style="edgeStyle=orthogonalEdgeStyle;rounded=0;orthogonalLoop=1;jettySize=auto;html=1;" edge="1" parent="1" source="EO2H5Wq8OpSOIzvtQBnQ-39" target="EO2H5Wq8OpSOIzvtQBnQ-44">
          <mxGeometry relative="1" as="geometry" />
        </mxCell>
        <mxCell id="EO2H5Wq8OpSOIzvtQBnQ-39" value="YES" style="ellipse;whiteSpace=wrap;html=1;rounded=1;" vertex="1" parent="1">
          <mxGeometry x="420" y="900" width="80" height="80" as="geometry" />
        </mxCell>
        <mxCell id="EO2H5Wq8OpSOIzvtQBnQ-43" style="edgeStyle=orthogonalEdgeStyle;rounded=0;orthogonalLoop=1;jettySize=auto;html=1;exitX=0;exitY=0.5;exitDx=0;exitDy=0;" edge="1" parent="1" source="EO2H5Wq8OpSOIzvtQBnQ-41">
          <mxGeometry relative="1" as="geometry">
            <mxPoint x="40" y="940" as="targetPoint" />
          </mxGeometry>
        </mxCell>
        <mxCell id="EO2H5Wq8OpSOIzvtQBnQ-41" value="NO" style="ellipse;whiteSpace=wrap;html=1;rounded=1;" vertex="1" parent="1">
          <mxGeometry x="160" y="900" width="80" height="80" as="geometry" />
        </mxCell>
        <mxCell id="EO2H5Wq8OpSOIzvtQBnQ-44" value="Show document" style="whiteSpace=wrap;html=1;rounded=1;" vertex="1" parent="1">
          <mxGeometry x="365" y="1030" width="120" height="60" as="geometry" />
        </mxCell>
      </root>
    </mxGraphModel>
  </diagram>
</mxfile>
